<?xml version="1.0" encoding="utf-8"?>
<!-- Generator: Adobe Illustrator 19.2.1, SVG Export Plug-In . SVG Version: 6.00 Build 0)  -->
<svg version="1.1" id="Layer_1" xmlns="http://www.w3.org/2000/svg" xmlns:xlink="http://www.w3.org/1999/xlink" x="0px" y="0px"
	 viewBox="0 0 288 216" style="enable-background:new 0 0 288 216;" xml:space="preserve">
<style type="text/css">
	.st0{fill:#FFFFFF;}
</style>
<g>
	<g>
		<path class="st0" d="M129.8,45.3l5.2-5.2h16.8l5.2,5.2v34.5l-5.2,5.2H135l-5.2-5.2V45.3L129.8,45.3z M170,39.7l-12.8-12.8h-27.7
			l-12.9,12.9v45.6l12.9,12.9h27.7L170,85.5V39.7L170,39.7z"/>
		<path class="st0" d="M114.9,86.1V38.7l13.9-13.9l29.1,0l14,13.9l-0.2,47.5l-13.9,13.9l-29,0L114.9,86.1L114.9,86.1z M128.3,23.5
			l-14.7,14.7v48.6l14.6,14.8h30.3l14.6-14.7l0.1-48.6l-14.6-14.7H128.3L128.3,23.5z"/>
		<path class="st0" d="M136.5,43.4h13.8l3.3,3.3v31.8l-3.2,3.2h-14l-3.1-3.1V46.7L136.5,43.4L136.5,43.4z M154.9,46.2l-4.1-4.1
			h-14.8l-4.1,4.1V79l4,4H151l3.9-3.9V46.2L154.9,46.2z"/>
	</g>
	<g>
		<g>
			<path class="st0" d="M33.8,127l-0.4-3h-5.5v19.5l2.9,0.4v1.9H20.3V144l2.9-0.4V124h-5.5l-0.4,3h-2v-5.6h20.4v5.6H33.8z"/>
			<path class="st0" d="M48.9,145.8v-1.7l2.7-0.4V137h-7.3v6.7l2.7,0.4v1.7h-9.9v-1.7l2.8-0.4v-14.7l-2.8-0.4v-1.7h9.9v1.7l-2.7,0.4
				v5.7h7.3v-5.7l-2.7-0.4v-1.7h9.9v1.7l-2.8,0.4v14.7l2.8,0.4v1.7H48.9z"/>
			<path class="st0" d="M77.4,145.8H61v-1.7l2.8-0.4v-14.7l-2.8-0.4v-1.7h16.5v5.1h-1.9l-0.4-2.7h-7v5.7h4.4l0.4-2.4h1.6v7.1H73
				l-0.4-2.4h-4.4v6.6h7l0.4-2.7h1.9V145.8z"/>
			<path class="st0" d="M100.6,146.3c-7.6,0-10.9-4.5-10.9-12.7c0-8.1,3.3-12.6,10.9-12.6c7.6,0,10.9,4.5,10.9,12.7
				C111.5,141.9,108.2,146.3,100.6,146.3z M100.6,123.7c-4,0-6.1,3.2-6.1,9.9c0,6.7,2,10,6,10c4,0,6.1-3.2,6.1-9.9
				C106.7,127,104.7,123.7,100.6,123.7z"/>
			<path class="st0" d="M125.2,145.8v-1.7l2.7-0.4V137h-7.3v6.7l2.7,0.4v1.7h-9.9v-1.7l2.8-0.4v-14.7l-2.8-0.4v-1.7h9.9v1.7
				l-2.7,0.4v5.7h7.3v-5.7l-2.7-0.4v-1.7h9.9v1.7l-2.8,0.4v14.7l2.8,0.4v1.7H125.2z"/>
			<path class="st0" d="M137.5,145.8v-1.7l2.8-0.4v-14.7l-2.8-0.4v-1.7h10v1.7l-2.8,0.4v14.7l2.8,0.4v1.7H137.5z"/>
			<path class="st0" d="M158.3,146.2c-6.4,0-9.2-3.6-9.2-9.9c0-6.3,2.8-9.9,9.3-9.9c6.4,0,9.2,3.6,9.2,9.9
				C167.6,142.7,164.8,146.2,158.3,146.2z M158.4,128.9c-3.1,0-4.7,2.2-4.7,7.3c0,5.2,1.6,7.4,4.6,7.4c3.1,0,4.7-2.2,4.7-7.3
				C163,131.2,161.4,128.9,158.4,128.9z"/>
			<path class="st0" d="M187.5,146.3c-4.2,0-7.6-1.5-7.6-1.5v-5.2h2.1l0.5,3.3c0,0,1.6,0.5,4.3,0.5c2.8,0,5.4-0.9,5.4-4
				c0-2.8-2-3.2-4.4-4c-3.8-1.3-7.9-2.4-7.9-7.6c0-4.3,2.7-6.8,8.2-6.8c2.5,0,5.2,0.6,7.3,1.4v4.9h-2.1l-0.5-3.1
				c0,0-2.2-0.5-4.3-0.5c-2.1,0-4.3,0.7-4.3,3.5c0,6.1,12.2,2.1,12.2,11.8C196.5,143.6,193.5,146.3,187.5,146.3z"/>
			<path class="st0" d="M213.8,132l-0.4-2.9h-4.2v14.6l2.8,0.4v1.7h-10v-1.7l2.8-0.4v-14.6h-4.2l-0.4,2.9h-1.9v-5.3h17.4v5.3H213.8z
				"/>
			<path class="st0" d="M227.3,145.8v-1.7l2.7-0.4l-1.3-3.5h-7.3l-1.3,3.5l2.7,0.4v1.7h-8.3v-1.7l2.7-0.4l6.5-16.9h4.2l6.5,16.9
				l2.7,0.4v1.7H227.3z M225,130.4l-2.8,7.6h5.5L225,130.4z"/>
			<path class="st0" d="M251.6,132l-0.4-2.9h-4.2v14.6l2.8,0.4v1.7h-10v-1.7l2.8-0.4v-14.6h-4.2l-0.4,2.9H236v-5.3h17.4v5.3H251.6z"
				/>
			<path class="st0" d="M271.6,145.8h-16.5v-1.7l2.8-0.4v-14.7l-2.8-0.4v-1.7h16.5v5.1h-1.9l-0.4-2.7h-7v5.7h4.4l0.4-2.4h1.6v7.1
				h-1.6l-0.4-2.4h-4.4v6.6h7l0.4-2.7h1.9V145.8z"/>
		</g>
		<g>
			<path class="st0" d="M67.2,159.8v12.4c0,4.2-0.3,6-2.2,8c-1.4,1.4-3.7,2.1-7.2,2.1c-3.4,0-6-0.9-7.6-2.5
				c-2.1-2.1-1.9-5.2-1.9-7.9v-12.1l-2.9-0.4v-1.9h10.5v1.9l-2.9,0.4V174c0,4,2.2,5.6,5.6,5.6c1.8,0,3.3-0.4,4.3-1.4
				c0.9-0.9,1.3-2.3,1.3-4.2v-14.3l-2.9-0.4v-1.9h8.9v1.9L67.2,159.8z"/>
			<path class="st0" d="M90.1,164.9v16.9h-3.4L77,168.2v11.5l2.8,0.4v1.7h-8.5v-1.7l2.8-0.4v-14.7l-2.8-0.4v-1.7H78l9.3,13v-10.8
				l-2.8-0.4v-1.7H93v1.7L90.1,164.9z"/>
			<path class="st0" d="M95.2,181.9v-1.7l2.8-0.4v-14.7l-2.8-0.4v-1.7h10v1.7l-2.8,0.4v14.7l2.8,0.4v1.7H95.2z"/>
			<path class="st0" d="M126.6,164.9l-6.4,16.9H116l-6.4-16.9l-2.7-0.4v-1.7h9.9v1.7l-2.7,0.4l4.8,13.1l4.8-13.1l-2.7-0.4v-1.7h8.3
				v1.7L126.6,164.9z"/>
			<path class="st0" d="M147.3,181.9h-16.5v-1.7l2.8-0.4v-14.7l-2.8-0.4v-1.7h16.5v5.1h-1.9l-0.4-2.7h-7v5.7h4.4l0.4-2.4h1.6v7.1
				h-1.6l-0.4-2.4H138v6.6h7l0.4-2.7h1.9V181.9z"/>
			<path class="st0" d="M164,181.9l-1.8-4.4c-1.2-2.9-1.9-4.3-4.5-4.3h-0.3v6.4l2.7,0.4v1.7h-9.9v-1.7l2.8-0.4v-14.7l-2.8-0.4v-1.7
				h9.6c2,0,4.3,0.1,5.7,1.5c1,0.9,1.5,2.1,1.5,3.6c0,2.2-1.5,4.2-3.5,4.8c1.6,1.2,3,5.1,3.8,7l2.7,0.4v1.7H164z M162,165.7
				c-0.7-0.8-2.3-0.7-3.3-0.7h-1.3v6.1h0.8c1.2,0,2.9,0.1,3.9-0.9c0.6-0.7,0.7-1.4,0.7-2.3C162.8,167.1,162.6,166.3,162,165.7z"/>
			<path class="st0" d="M178.8,182.2c-3.6,0-6.5-1.2-6.5-1.2v-4.9h2l0.5,3.1c0,0,1.4,0.4,3.5,0.4c2.3,0,4.1-0.8,4.1-2.8
				c0-1.5-0.8-2-2-2.4c-3.5-1.2-8-1.7-8-6.5c0-3.4,2.4-5.5,7.1-5.5c2.1,0,4.4,0.4,6.3,1.1v4.7h-2l-0.5-3c0,0-1.6-0.4-3.4-0.4
				c-1.8,0-3.3,0.6-3.3,2.5c0,4.3,10.1,1.4,10.1,9C186.6,180.1,183.9,182.2,178.8,182.2z"/>
			<path class="st0" d="M189.1,181.9v-1.7l2.8-0.4v-14.7l-2.8-0.4v-1.7h10v1.7l-2.8,0.4v14.7l2.8,0.4v1.7H189.1z"/>
			<path class="st0" d="M216.8,168l-0.4-2.9h-4.2v14.6l2.8,0.4v1.7h-10v-1.7l2.8-0.4v-14.6h-4.2l-0.4,2.9h-1.9v-5.3h17.4v5.3H216.8z
				"/>
			<path class="st0" d="M238.7,164.9l-5.6,8.6v6.1l2.8,0.4v1.7h-10v-1.7l2.8-0.4v-6.1l-5.6-8.6l-2.7-0.4v-1.7h10.1v1.7l-2.7,0.4
				l3.9,6.2l3.9-6.2l-2.6-0.4v-1.7h8.4v1.7L238.7,164.9z"/>
		</g>
		<polygon class="st0" points="44,195.1 44,196.5 242.9,196.5 242.9,195.1 44,195.1 		"/>
	</g>
</g>
</svg>
