<?xml version="1.0" encoding="utf-8"?>
<!-- Generator: Adobe Illustrator 19.2.1, SVG Export Plug-In . SVG Version: 6.00 Build 0)  -->
<svg version="1.1" id="Layer_1" xmlns="http://www.w3.org/2000/svg" xmlns:xlink="http://www.w3.org/1999/xlink" x="0px" y="0px"
	 viewBox="0 0 288 216" style="enable-background:new 0 0 288 216;" xml:space="preserve">
<style type="text/css">
	.st0{fill:#BB0000;}
	.st1{fill:#2D2D2D;}
</style>
<g>
	<path class="st0" d="M130.4,43.3l5.2-5.2h16.8l5.2,5.2v34.5l-5.2,5.2h-16.8l-5.2-5.2L130.4,43.3L130.4,43.3z M170.6,37.7
		l-12.8-12.8h-27.7l-12.9,12.9v45.6l12.9,12.9h27.7l12.8-12.7L170.6,37.7L170.6,37.7z"/>
	<path class="st1" d="M115.5,84.1V36.7l13.9-13.9l29.1,0l14,13.9l-0.2,47.5l-13.9,13.9h-29L115.5,84.1L115.5,84.1z M128.9,21.5
		l-14.7,14.7v48.6l14.6,14.8h30.3l14.6-14.7l0.1-48.6l-14.6-14.7L128.9,21.5L128.9,21.5z"/>
	<path class="st1" d="M137.1,41.4h13.8l3.3,3.3v31.8l-3.2,3.2h-14l-3.1-3.1V44.7L137.1,41.4L137.1,41.4z M155.5,44.2l-4.1-4.1h-14.8
		l-4.1,4.1V77l4,4h15.1l3.9-3.9L155.5,44.2L155.5,44.2z"/>
	<g>
		<g>
			<path class="st1" d="M34.3,125l-0.4-3h-5.5v19.5l2.9,0.4v1.9H20.8V142l2.9-0.4V122h-5.5l-0.4,3h-2v-5.6h20.4v5.6L34.3,125
				L34.3,125z"/>
			<path class="st1" d="M49.5,143.8v-1.7l2.7-0.4V135H45v6.7l2.7,0.4v1.7h-9.9v-1.7l2.8-0.4v-14.7l-2.8-0.4v-1.7h9.9v1.7l-2.7,0.4
				v5.7h7.3v-5.7l-2.7-0.4v-1.7h9.9v1.7l-2.8,0.4v14.7l2.8,0.4v1.7L49.5,143.8L49.5,143.8z"/>
			<path class="st1" d="M78,143.8H61.5v-1.7l2.8-0.4v-14.7l-2.8-0.4v-1.7H78v5.1h-1.9l-0.4-2.7h-7v5.7h4.4l0.4-2.4h1.6v7.1h-1.6
				l-0.4-2.4h-4.4v6.6h7l0.4-2.7H78L78,143.8L78,143.8z"/>
			<path class="st1" d="M101.2,144.3c-7.6,0-10.9-4.5-10.9-12.7c0-8.1,3.3-12.6,10.9-12.6c7.6,0,10.9,4.5,10.9,12.7
				C112.1,139.9,108.8,144.3,101.2,144.3z M101.2,121.7c-4,0-6.1,3.2-6.1,9.9c0,6.7,2,10,6,10c4,0,6.1-3.2,6.1-9.9
				C107.3,125,105.3,121.7,101.2,121.7z"/>
			<path class="st1" d="M125.8,143.8v-1.7l2.7-0.4V135h-7.3v6.7l2.7,0.4v1.7h-9.9v-1.7l2.8-0.4v-14.7l-2.8-0.4v-1.7h9.9v1.7
				l-2.7,0.4v5.7h7.3v-5.7l-2.7-0.4v-1.7h9.9v1.7l-2.8,0.4v14.7l2.8,0.4v1.7L125.8,143.8L125.8,143.8z"/>
			<path class="st1" d="M138.1,143.8v-1.7l2.8-0.4v-14.7l-2.8-0.4v-1.7h10v1.7l-2.8,0.4v14.7l2.8,0.4v1.7L138.1,143.8L138.1,143.8z"
				/>
			<path class="st1" d="M158.9,144.2c-6.4,0-9.2-3.6-9.2-9.9c0-6.3,2.8-9.9,9.3-9.9c6.4,0,9.2,3.6,9.2,9.9
				C168.2,140.7,165.4,144.2,158.9,144.2z M159,126.9c-3.1,0-4.7,2.2-4.7,7.3c0,5.2,1.6,7.4,4.6,7.4c3.1,0,4.7-2.2,4.7-7.3
				C163.6,129.2,162,126.9,159,126.9z"/>
			<path class="st1" d="M188.1,144.3c-4.2,0-7.6-1.5-7.6-1.5v-5.2h2.1l0.5,3.3c0,0,1.6,0.5,4.3,0.5c2.8,0,5.4-0.9,5.4-4
				c0-2.8-2-3.2-4.4-4c-3.8-1.3-7.9-2.4-7.9-7.6c0-4.3,2.7-6.8,8.2-6.8c2.5,0,5.2,0.6,7.3,1.4v4.9h-2.1l-0.5-3.1
				c0,0-2.2-0.5-4.3-0.5c-2.1,0-4.3,0.7-4.3,3.5c0,6.1,12.2,2.1,12.2,11.8C197.1,141.6,194.1,144.3,188.1,144.3z"/>
			<path class="st1" d="M214.4,130l-0.4-2.9h-4.2v14.6l2.8,0.4v1.7h-10v-1.7l2.8-0.4v-14.6h-4.2l-0.4,2.9h-1.9v-5.3h17.4v5.3
				L214.4,130L214.4,130z"/>
			<path class="st1" d="M227.9,143.8v-1.7l2.7-0.4l-1.3-3.5H222l-1.3,3.5l2.7,0.4v1.7H215v-1.7l2.7-0.4l6.5-16.9h4.2l6.5,16.9
				l2.7,0.4v1.7H227.9z M225.6,128.4l-2.8,7.6h5.5L225.6,128.4z"/>
			<path class="st1" d="M252.1,130l-0.4-2.9h-4.2v14.6l2.8,0.4v1.7h-10v-1.7l2.8-0.4v-14.6h-4.2l-0.4,2.9h-1.9v-5.3H254v5.3
				L252.1,130L252.1,130z"/>
			<path class="st1" d="M272.1,143.8h-16.5v-1.7l2.8-0.4v-14.7l-2.8-0.4v-1.7h16.5v5.1h-1.9l-0.4-2.7h-7v5.7h4.4l0.4-2.4h1.6v7.1
				h-1.6l-0.4-2.4h-4.4v6.6h7l0.4-2.7h1.9V143.8z"/>
		</g>
		<g>
			<path class="st1" d="M67.8,157.8v12.4c0,4.2-0.3,6-2.2,8c-1.4,1.4-3.7,2.1-7.2,2.1c-3.4,0-6-0.9-7.6-2.5
				c-2.1-2.1-1.9-5.2-1.9-7.9v-12.1l-2.9-0.4v-1.9h10.5v1.9l-2.9,0.4V172c0,4,2.2,5.6,5.6,5.6c1.8,0,3.3-0.4,4.3-1.4
				c0.9-0.9,1.3-2.3,1.3-4.2v-14.3l-2.9-0.4v-1.9h8.9v1.9L67.8,157.8z"/>
			<path class="st1" d="M90.7,162.9v16.9h-3.4l-9.7-13.6v11.5l2.8,0.4v1.7h-8.5v-1.7l2.8-0.4v-14.7l-2.8-0.4v-1.7h6.7l9.3,13v-10.8
				l-2.8-0.4v-1.7h8.5v1.7L90.7,162.9z"/>
			<path class="st1" d="M95.8,179.9v-1.7l2.8-0.4v-14.7l-2.8-0.4v-1.7h10v1.7l-2.8,0.4v14.7l2.8,0.4v1.7H95.8z"/>
			<path class="st1" d="M127.2,162.9l-6.4,16.9h-4.2l-6.4-16.9l-2.7-0.4v-1.7h9.9v1.7l-2.7,0.4l4.8,13.1l4.8-13.1l-2.7-0.4v-1.7h8.3
				v1.7L127.2,162.9z"/>
			<path class="st1" d="M147.9,179.9h-16.5v-1.7l2.8-0.4v-14.7l-2.8-0.4v-1.7h16.5v5.1H146l-0.4-2.7h-7v5.7h4.4l0.4-2.4h1.6v7.1
				h-1.6l-0.4-2.4h-4.4v6.6h7l0.4-2.7h1.9V179.9z"/>
			<path class="st1" d="M164.6,179.9l-1.8-4.4c-1.2-2.9-1.9-4.3-4.5-4.3H158v6.4l2.7,0.4v1.7h-9.9v-1.7l2.8-0.4v-14.7l-2.8-0.4v-1.7
				h9.6c2,0,4.3,0.1,5.7,1.5c1,0.9,1.5,2.1,1.5,3.6c0,2.2-1.5,4.2-3.5,4.8c1.6,1.2,3,5.1,3.8,7l2.7,0.4v1.7L164.6,179.9L164.6,179.9
				L164.6,179.9z M162.6,163.7c-0.7-0.8-2.3-0.7-3.3-0.7H158v6.1h0.8c1.2,0,2.9,0.1,3.9-0.9c0.6-0.7,0.7-1.4,0.7-2.3
				C163.4,165.1,163.2,164.3,162.6,163.7z"/>
			<path class="st1" d="M179.4,180.2c-3.6,0-6.5-1.2-6.5-1.2v-4.9h2l0.5,3.1c0,0,1.4,0.4,3.5,0.4c2.3,0,4.1-0.8,4.1-2.8
				c0-1.5-0.8-2-2-2.4c-3.5-1.2-8-1.7-8-6.5c0-3.4,2.4-5.5,7.1-5.5c2.1,0,4.4,0.4,6.3,1.1v4.7h-2l-0.5-3c0,0-1.6-0.4-3.4-0.4
				c-1.8,0-3.3,0.6-3.3,2.5c0,4.3,10.1,1.4,10.1,9C187.2,178.1,184.5,180.2,179.4,180.2z"/>
			<path class="st1" d="M189.7,179.9v-1.7l2.8-0.4v-14.7l-2.8-0.4v-1.7h10v1.7l-2.8,0.4v14.7l2.8,0.4v1.7H189.7z"/>
			<path class="st1" d="M217.4,166l-0.4-2.9h-4.2v14.6l2.8,0.4v1.7h-10v-1.7l2.8-0.4v-14.6h-4.2l-0.4,2.9h-1.9v-5.3h17.4v5.3H217.4z
				"/>
			<path class="st1" d="M239.3,162.9l-5.6,8.6v6.1l2.8,0.4v1.7h-10v-1.7l2.8-0.4v-6.1l-5.6-8.6l-2.7-0.4v-1.7h10.1v1.7l-2.7,0.4
				l3.9,6.2l3.9-6.2l-2.6-0.4v-1.7h8.4v1.7L239.3,162.9z"/>
		</g>
		<polygon class="st1" points="44.5,193.1 44.5,194.5 243.5,194.5 243.5,193.1 		"/>
	</g>
</g>
</svg>
