<?xml version="1.0" encoding="utf-8"?>
<!-- Generator: Adobe Illustrator 19.2.1, SVG Export Plug-In . SVG Version: 6.00 Build 0)  -->
<svg version="1.1" id="Layer_1" xmlns="http://www.w3.org/2000/svg" xmlns:xlink="http://www.w3.org/1999/xlink" x="0px" y="0px"
	 viewBox="0 0 290 40" style="enable-background:new 0 0 290 40;" xml:space="preserve">
<style type="text/css">
	.st0{fill:#666666;}
</style>
<g>
	<polygon class="st0" points="11.8,10.9 11.5,9.1 8.1,9.1 8.1,21.2 9.9,21.5 9.9,22.7 3.4,22.7 3.4,21.5 5.2,21.2 5.2,9.1 1.8,9.1 
		1.5,10.9 0.3,10.9 0.3,7.5 13,7.5 13,10.9 	"/>
	<polygon class="st0" points="21.2,22.7 21.2,21.6 22.9,21.3 22.9,17.2 18.4,17.2 18.4,21.3 20.1,21.6 20.1,22.7 13.9,22.7 
		13.9,21.6 15.7,21.3 15.7,12.1 13.9,11.9 13.9,10.8 20.1,10.8 20.1,11.9 18.4,12.1 18.4,15.7 22.9,15.7 22.9,12.1 21.2,11.9 
		21.2,10.8 27.4,10.8 27.4,11.9 25.6,12.1 25.6,21.3 27.4,21.6 27.4,22.7 	"/>
	<polygon class="st0" points="39,22.7 28.7,22.7 28.7,21.6 30.5,21.3 30.5,12.1 28.7,11.9 28.7,10.8 39,10.8 39,13.9 37.8,13.9 
		37.5,12.2 33.2,12.2 33.2,15.7 35.9,15.7 36.2,14.2 37.2,14.2 37.2,18.6 36.2,18.6 35.9,17.1 33.2,17.1 33.2,21.2 37.5,21.2 
		37.8,19.5 39,19.5 	"/>
	<path class="st0" d="M53.4,8.9c-2.5,0-3.8,2-3.8,6.2c0,4.2,1.2,6.2,3.8,6.2c2.5,0,3.8-2,3.8-6.2C57.2,10.9,55.9,8.9,53.4,8.9
		L53.4,8.9z M53.4,22.9c-4.7,0-6.8-2.8-6.8-7.9c0-5.1,2.1-7.8,6.8-7.8c4.7,0,6.8,2.8,6.8,7.9C60.2,20.2,58.1,22.9,53.4,22.9
		L53.4,22.9z"/>
	<polygon class="st0" points="68.7,22.7 68.7,21.6 70.4,21.3 70.4,17.2 65.9,17.2 65.9,21.3 67.6,21.6 67.6,22.7 61.4,22.7 
		61.4,21.6 63.2,21.3 63.2,12.1 61.4,11.9 61.4,10.8 67.6,10.8 67.6,11.9 65.9,12.1 65.9,15.7 70.4,15.7 70.4,12.1 68.7,11.9 
		68.7,10.8 74.9,10.8 74.9,11.9 73.1,12.1 73.1,21.3 74.9,21.6 74.9,22.7 	"/>
	<polygon class="st0" points="76.4,22.7 76.4,21.6 78.1,21.3 78.1,12.1 76.4,11.9 76.4,10.8 82.6,10.8 82.6,11.9 80.8,12.1 
		80.8,21.3 82.6,21.6 82.6,22.7 	"/>
	<path class="st0" d="M89.3,12.1c-1.9,0-2.9,1.4-2.9,4.6c0,3.2,1,4.6,2.9,4.6s2.9-1.4,2.9-4.6C92.2,13.5,91.2,12.1,89.3,12.1
		L89.3,12.1z M89.3,22.9c-4,0-5.8-2.2-5.8-6.2c0-3.9,1.8-6.1,5.8-6.1c4,0,5.7,2.2,5.7,6.2C95.1,20.7,93.3,22.9,89.3,22.9L89.3,22.9z
		"/>
	<path class="st0" d="M107.5,22.9c-2.6,0-4.7-0.9-4.7-0.9v-3.2h1.3l0.3,2.1c0,0,1,0.3,2.7,0.3c1.8,0,3.3-0.6,3.3-2.5
		c0-1.7-1.2-2-2.7-2.5c-2.4-0.8-4.9-1.5-4.9-4.7c0-2.6,1.7-4.3,5.1-4.3c1.6,0,3.2,0.4,4.5,0.9v3h-1.3l-0.3-1.9c0,0-1.4-0.3-2.7-0.3
		c-1.3,0-2.7,0.5-2.7,2.2c0,3.8,7.6,1.3,7.6,7.3C113.1,21.2,111.2,22.9,107.5,22.9L107.5,22.9z"/>
	<polygon class="st0" points="123.8,14.1 123.5,12.2 120.9,12.2 120.9,21.3 122.7,21.6 122.7,22.7 116.4,22.7 116.4,21.6 
		118.2,21.3 118.2,12.2 115.6,12.2 115.3,14.1 114.1,14.1 114.1,10.8 125,10.8 125,14.1 	"/>
	<path class="st0" d="M130.8,13.1l-1.7,4.7h3.4L130.8,13.1L130.8,13.1z M132.2,22.7v-1.1l1.7-0.3l-0.8-2.1h-4.5l-0.8,2.1l1.7,0.3
		v1.1h-5.2v-1.1l1.7-0.3l4.1-10.5h2.6l4.1,10.5l1.7,0.3v1.1H132.2L132.2,22.7z"/>
	<polygon class="st0" points="147.3,14.1 147.1,12.2 144.4,12.2 144.4,21.3 146.2,21.6 146.2,22.7 139.9,22.7 139.9,21.6 
		141.7,21.3 141.7,12.2 139.1,12.2 138.8,14.1 137.7,14.1 137.7,10.8 148.5,10.8 148.5,14.1 	"/>
	<polygon class="st0" points="159.8,22.7 149.5,22.7 149.5,21.6 151.3,21.3 151.3,12.1 149.5,11.9 149.5,10.8 159.8,10.8 
		159.8,13.9 158.6,13.9 158.3,12.2 154,12.2 154,15.7 156.7,15.7 157,14.2 158,14.2 158,18.6 157,18.6 156.7,17.1 154,17.1 
		154,21.2 158.3,21.2 158.6,19.5 159.8,19.5 	"/>
	<path class="st0" d="M180.4,8.9v7.7c0,2.6-0.2,3.7-1.4,5c-0.9,0.9-2.3,1.3-4.5,1.3c-2.1,0-3.7-0.6-4.7-1.6
		c-1.3-1.3-1.2-3.2-1.2-4.9V8.9l-1.8-0.3V7.5h6.5v1.2l-1.8,0.3v8.9c0,2.5,1.4,3.5,3.5,3.5c1.1,0,2.1-0.2,2.7-0.9
		c0.5-0.6,0.8-1.4,0.8-2.6V8.9l-1.8-0.3V7.5h5.5v1.2L180.4,8.9L180.4,8.9z"/>
	<polygon class="st0" points="194.7,12.1 194.7,22.7 192.6,22.7 186.5,14.2 186.5,21.3 188.3,21.6 188.3,22.7 183,22.7 183,21.6 
		184.8,21.3 184.8,12.1 183,11.9 183,10.8 187.1,10.8 192.9,18.9 192.9,12.1 191.2,11.9 191.2,10.8 196.5,10.8 196.5,11.9 	"/>
	<polygon class="st0" points="197.9,22.7 197.9,21.6 199.7,21.3 199.7,12.1 197.9,11.9 197.9,10.8 204.1,10.8 204.1,11.9 
		202.4,12.1 202.4,21.3 204.1,21.6 204.1,22.7 	"/>
	<polygon class="st0" points="217.4,12.1 213.4,22.7 210.8,22.7 206.9,12.1 205.2,11.9 205.2,10.8 211.3,10.8 211.3,11.9 
		209.6,12.1 212.6,20.3 215.6,12.1 213.9,11.9 213.9,10.8 219.1,10.8 219.1,11.9 	"/>
	<polygon class="st0" points="230.3,22.7 220,22.7 220,21.6 221.8,21.3 221.8,12.1 220,11.9 220,10.8 230.3,10.8 230.3,13.9 
		229.1,13.9 228.9,12.2 224.5,12.2 224.5,15.7 227.2,15.7 227.5,14.2 228.5,14.2 228.5,18.6 227.5,18.6 227.2,17.1 224.5,17.1 
		224.5,21.2 228.9,21.2 229.1,19.5 230.3,19.5 	"/>
	<path class="st0" d="M239.4,12.6c-0.5-0.5-1.4-0.4-2-0.4h-0.8V16h0.5c0.8,0,1.8,0.1,2.4-0.5c0.4-0.4,0.5-0.9,0.5-1.4
		C239.9,13.5,239.8,13,239.4,12.6L239.4,12.6z M240.7,22.7l-1.1-2.7c-0.7-1.8-1.2-2.6-2.8-2.6h-0.2v4l1.7,0.3v1.1h-6.2v-1.1l1.8-0.3
		v-9.2l-1.8-0.3v-1.1h6c1.2,0,2.6,0.1,3.6,0.9c0.6,0.6,1,1.3,1,2.2c0,1.4-0.9,2.6-2.2,3c1,0.7,1.9,3.2,2.4,4.4l1.7,0.3v1.1
		L240.7,22.7L240.7,22.7z"/>
	<path class="st0" d="M249.9,22.9c-2.2,0-4.1-0.7-4.1-0.7v-3.1h1.2l0.3,1.9c0,0,0.9,0.2,2.2,0.2c1.4,0,2.6-0.5,2.6-1.8
		c0-0.9-0.5-1.2-1.2-1.5c-2.2-0.7-5-1.1-5-4c0-2.1,1.5-3.4,4.4-3.4c1.3,0,2.7,0.3,3.9,0.7v2.9h-1.2l-0.3-1.9c0,0-1-0.2-2.1-0.2
		s-2.1,0.4-2.1,1.5c0,2.6,6.3,0.9,6.3,5.6C254.7,21.6,253.1,22.9,249.9,22.9L249.9,22.9z"/>
	<polygon class="st0" points="256.3,22.7 256.3,21.6 258.1,21.3 258.1,12.1 256.3,11.9 256.3,10.8 262.6,10.8 262.6,11.9 
		260.8,12.1 260.8,21.3 262.6,21.6 262.6,22.7 	"/>
	<polygon class="st0" points="273.5,14.1 273.2,12.2 270.6,12.2 270.6,21.3 272.4,21.6 272.4,22.7 266.1,22.7 266.1,21.6 
		267.9,21.3 267.9,12.2 265.3,12.2 265,14.1 263.8,14.1 263.8,10.8 274.7,10.8 274.7,14.1 	"/>
	<polygon class="st0" points="287.2,12.1 283.7,17.5 283.7,21.3 285.5,21.6 285.5,22.7 279.2,22.7 279.2,21.6 281,21.3 281,17.5 
		277.5,12.1 275.8,11.9 275.8,10.8 282.1,10.8 282.1,11.9 280.4,12.1 282.8,16 285.2,12.1 283.6,11.9 283.6,10.8 288.9,10.8 
		288.9,11.9 	"/>
	<polygon class="st0" points="0.2,30.9 0.2,31.8 289.8,31.8 289.8,30.9 0.2,30.9 	"/>
</g>
</svg>
