<?xml version="1.0" encoding="utf-8"?>
<!-- Generator: Adobe Illustrator 16.0.0, SVG Export Plug-In . SVG Version: 6.00 Build 0)  -->
<!DOCTYPE svg PUBLIC "-//W3C//DTD SVG 1.1//EN" "http://www.w3.org/Graphics/SVG/1.1/DTD/svg11.dtd">
<svg version="1.1" id="Layer_1" xmlns="http://www.w3.org/2000/svg" xmlns:xlink="http://www.w3.org/1999/xlink" x="0px" y="0px"
	 width="288px" height="216px" viewBox="143.78 36 288 216" enable-background="new 143.78 36 288 216" xml:space="preserve">
<g>
	<path fill="#BB0000" d="M274.167,79.29l5.183-5.184h16.795l5.182,5.184v34.538l-5.182,5.182h-16.795l-5.183-5.182V79.29
		L274.167,79.29z M314.412,73.652l-12.811-12.776h-27.736l-12.877,12.885v45.609l12.876,12.884h27.737l12.811-12.742V73.652
		L314.412,73.652z"/>
	<path fill="#666666" d="M259.306,120.112V72.745l13.944-13.929l29.148-0.003l14,13.932l-0.246,47.467l-13.854,13.853l-29.048-0.001
		L259.306,120.112L259.306,120.112z M272.661,57.488L257.99,72.154v48.56l14.569,14.753h30.345l14.566-14.667l0.1-48.646
		l-14.566-14.666L272.661,57.488L272.661,57.488z"/>
	<path fill="#666666" d="M280.868,77.427h13.775l3.285,3.285v31.761l-3.162,3.164h-14.023l-3.115-3.116V80.668L280.868,77.427
		L280.868,77.427z M299.256,80.216l-4.115-4.115h-14.847l-4.058,4.059v32.834l3.97,3.969h15.115l3.938-3.937v-32.81H299.256z"/>
	<g>
		<g>
			<path fill="#666666" d="M178.116,161.03l-0.437-3.021h-5.527v19.533l2.944,0.437v1.854h-10.475v-1.854l2.945-0.437v-19.532
				h-5.528l-0.437,3.021h-1.966v-5.566h20.444v5.566L178.116,161.03L178.116,161.03z"/>
			<path fill="#666666" d="M193.285,179.835v-1.746l2.728-0.438v-6.656h-7.274v6.656l2.728,0.438v1.746h-9.93v-1.746l2.837-0.438
				v-14.73l-2.837-0.438v-1.746h9.93v1.746l-2.728,0.438v5.746h7.274v-5.746l-2.728-0.438v-1.746h9.93v1.746l-2.836,0.438v14.73
				l2.836,0.438v1.746H193.285z"/>
			<path fill="#666666" d="M221.801,179.835h-16.478v-1.746l2.837-0.438v-14.73l-2.837-0.438v-1.746h16.478v5.057h-1.854
				l-0.438-2.727h-6.982v5.674h4.363l0.438-2.438h1.636v7.058h-1.636l-0.438-2.438h-4.363v6.584h6.982l0.438-2.729h1.854V179.835z"
				/>
			<path fill="#666666" d="M244.97,180.272c-7.565,0-10.875-4.513-10.875-12.695c0-8.148,3.346-12.551,10.913-12.551
				c7.565,0,10.876,4.512,10.876,12.694C255.884,175.87,252.538,180.272,244.97,180.272z M245.008,157.683
				c-4.038,0-6.11,3.238-6.11,9.93c0,6.73,2,10.005,6.037,10.005c4.039,0,6.111-3.238,6.111-9.931
				C251.045,160.956,249.045,157.683,245.008,157.683z"/>
			<path fill="#666666" d="M269.596,179.835v-1.746l2.728-0.438v-6.656h-7.273v6.656l2.729,0.438v1.746h-9.932v-1.746l2.837-0.438
				v-14.73l-2.837-0.438v-1.746h9.932v1.746l-2.729,0.438v5.746h7.273v-5.746l-2.728-0.438v-1.746h9.931v1.746l-2.837,0.438v14.73
				l2.837,0.438v1.746H269.596z"/>
			<path fill="#666666" d="M281.89,179.835v-1.746l2.837-0.438v-14.73l-2.837-0.438v-1.746h10.04v1.746l-2.838,0.438v14.73
				l2.838,0.438v1.746H281.89z"/>
			<path fill="#666666" d="M302.697,180.198c-6.439,0-9.24-3.603-9.24-9.93c0-6.328,2.836-9.857,9.275-9.857
				c6.438,0,9.238,3.602,9.238,9.93C311.971,176.671,309.135,180.198,302.697,180.198z M302.732,162.921
				c-3.057,0-4.691,2.219-4.691,7.348c0,5.164,1.562,7.42,4.619,7.42c3.055,0,4.729-2.219,4.729-7.348
				C307.389,165.177,305.787,162.921,302.732,162.921z"/>
			<path fill="#666666" d="M331.867,180.272c-4.219,0-7.602-1.455-7.602-1.455v-5.201h2.072l0.473,3.346c0,0,1.564,0.545,4.33,0.545
				c2.836,0,5.383-0.945,5.383-4.037c0-2.801-1.965-3.201-4.365-4.002c-3.818-1.273-7.857-2.363-7.857-7.602
				c0-4.256,2.656-6.84,8.223-6.84c2.547,0,5.199,0.584,7.273,1.383v4.875h-2.074l-0.471-3.129c0,0-2.184-0.473-4.295-0.473
				c-2.109,0-4.291,0.729-4.291,3.528c0,6.074,12.223,2.072,12.223,11.785C340.889,177.581,337.906,180.272,331.867,180.272z"/>
			<path fill="#666666" d="M358.129,166.013l-0.436-2.945h-4.221v14.584l2.838,0.438v1.746h-10.039v-1.746l2.838-0.438v-14.584
				h-4.221l-0.436,2.945h-1.857v-5.275h17.389v5.275H358.129z"/>
			<path fill="#666666" d="M371.66,179.835v-1.746l2.727-0.438l-1.344-3.453h-7.275l-1.348,3.453l2.73,0.438v1.746h-8.33v-1.746
				l2.729-0.438l6.547-16.914h4.184l6.547,16.914l2.729,0.438v1.746H371.66z M369.402,164.413l-2.764,7.566h5.529L369.402,164.413z"
				/>
			<path fill="#666666" d="M395.918,166.013l-0.438-2.945h-4.219v14.584l2.838,0.438v1.746h-10.041v-1.746l2.838-0.438v-14.584
				h-4.221l-0.436,2.945h-1.855v-5.275h17.389v5.275H395.918z"/>
			<path fill="#666666" d="M415.924,179.835h-16.479v-1.746l2.838-0.438v-14.73l-2.838-0.438v-1.746h16.479v5.057h-1.854
				l-0.439-2.727h-6.98v5.674h4.361l0.439-2.438h1.637v7.058h-1.637l-0.439-2.438h-4.361v6.584h6.98l0.439-2.729h1.854V179.835z"/>
		</g>
		<g>
			<path fill="#666666" d="M211.56,193.778v12.44c0,4.183-0.255,6.002-2.219,7.966c-1.419,1.42-3.747,2.108-7.202,2.108
				c-3.42,0-5.966-0.944-7.566-2.545c-2.072-2.074-1.854-5.166-1.854-7.856v-12.113l-2.946-0.437v-1.854h10.476v1.854l-2.947,0.437
				v14.26c0,4.002,2.22,5.602,5.639,5.602c1.82,0,3.312-0.363,4.293-1.418c0.873-0.91,1.346-2.328,1.346-4.184v-14.26l-2.946-0.437
				v-1.854h8.875v1.854L211.56,193.778z"/>
			<path fill="#666666" d="M234.511,198.944v16.914h-3.419l-9.713-13.642v11.457l2.838,0.438v1.746h-8.548v-1.746l2.837-0.438
				v-14.729l-2.837-0.438v-1.746h6.657l9.312,13.023v-10.841l-2.836-0.438v-1.746h8.547v1.746L234.511,198.944z"/>
			<path fill="#666666" d="M239.603,215.858v-1.746l2.839-0.438v-14.729l-2.839-0.438v-1.746h10.039v1.746l-2.837,0.438v14.729
				l2.837,0.438v1.746H239.603z"/>
			<path fill="#666666" d="M270.958,198.944l-6.366,16.914h-4.22l-6.367-16.914l-2.726-0.438v-1.746h9.892v1.746l-2.728,0.438
				l4.839,13.096l4.8-13.096l-2.727-0.438v-1.746h8.329v1.746L270.958,198.944z"/>
			<path fill="#666666" d="M291.656,215.858h-16.479v-1.746l2.836-0.438v-14.729l-2.836-0.438v-1.746h16.479v5.058h-1.857
				l-0.436-2.729h-6.985v5.677h4.365l0.438-2.438h1.637v7.057h-1.637l-0.438-2.438h-4.365v6.584h6.985l0.436-2.729h1.857V215.858z"
				/>
			<path fill="#666666" d="M308.387,215.858l-1.783-4.365c-1.201-2.91-1.928-4.256-4.473-4.256h-0.328v6.438l2.729,0.438v1.746
				H294.6v-1.746l2.836-0.438v-14.73l-2.836-0.438v-1.746h9.641c1.963,0,4.254,0.109,5.746,1.492c0.98,0.91,1.527,2.146,1.527,3.564
				c0,2.219-1.455,4.219-3.455,4.838c1.6,1.199,2.982,5.129,3.783,7.02l2.729,0.438v1.746H308.387L308.387,215.858z M306.35,199.671
				c-0.729-0.764-2.293-0.691-3.273-0.691h-1.273v6.111h0.766c1.234,0,2.945,0.146,3.854-0.873c0.582-0.654,0.729-1.418,0.729-2.254
				C307.148,201.126,306.969,200.327,306.35,199.671z"/>
			<path fill="#666666" d="M323.189,216.222c-3.564,0-6.547-1.199-6.547-1.199v-4.946h1.965l0.471,3.127
				c0,0,1.383,0.401,3.531,0.401c2.328,0,4.107-0.766,4.107-2.84c0-1.453-0.799-1.963-2-2.363c-3.527-1.2-8.039-1.709-8.039-6.475
				c0-3.42,2.365-5.494,7.057-5.494c2.146,0,4.365,0.438,6.295,1.129v4.729h-1.965l-0.473-2.981c0,0-1.602-0.363-3.383-0.363
				c-1.783,0-3.348,0.617-3.348,2.473c0,4.258,10.076,1.42,10.076,8.984C330.938,214.112,328.246,216.222,323.189,216.222z"/>
			<path fill="#666666" d="M333.484,215.858v-1.746l2.836-0.438v-14.729l-2.836-0.438v-1.746h10.039v1.746l-2.838,0.438v14.729
				l2.838,0.438v1.746H333.484z"/>
			<path fill="#666666" d="M361.129,202.036l-0.438-2.947h-4.219v14.586l2.838,0.438v1.746H349.27v-1.746l2.838-0.438v-14.586
				h-4.223l-0.434,2.947h-1.855v-5.275h17.389v5.275H361.129z"/>
			<path fill="#666666" d="M383.062,198.944l-5.566,8.621v6.108l2.838,0.438v1.746h-10.039v-1.746l2.838-0.438v-6.108l-5.641-8.621
				l-2.729-0.438v-1.746h10.113v1.746l-2.729,0.438l3.928,6.184l3.893-6.184l-2.619-0.438v-1.746h8.439v1.746L383.062,198.944z"/>
		</g>
		<polygon fill="#666666" points="188.319,229.142 188.319,230.513 387.242,230.513 387.242,229.142 		"/>
	</g>
</g>
</svg>
