<?xml version="1.0" encoding="utf-8"?>
<!-- Generator: Adobe Illustrator 16.0.0, SVG Export Plug-In . SVG Version: 6.00 Build 0)  -->
<!DOCTYPE svg PUBLIC "-//W3C//DTD SVG 1.1//EN" "http://www.w3.org/Graphics/SVG/1.1/DTD/svg11.dtd">
<svg version="1.1" id="Layer_1" xmlns="http://www.w3.org/2000/svg" xmlns:xlink="http://www.w3.org/1999/xlink" x="0px" y="0px"
	 width="290px" height="40px" viewBox="0 0 290 40" enable-background="new 0 0 290 40" xml:space="preserve">
<g>
	<polygon fill="#FFFFFF" points="11.782,10.949 11.51,9.07 8.07,9.07 8.07,21.227 9.903,21.498 9.903,22.652 3.384,22.652 
		3.384,21.498 5.217,21.227 5.217,9.07 1.777,9.07 1.505,10.949 0.282,10.949 0.282,7.486 13.005,7.486 13.005,10.949 
		11.782,10.949 	"/>
	<polygon fill="#FFFFFF" points="21.221,22.652 21.221,21.565 22.918,21.293 22.918,17.151 18.392,17.151 18.392,21.293 
		20.089,21.565 20.089,22.652 13.91,22.652 13.91,21.565 15.676,21.293 15.676,12.126 13.91,11.854 13.91,10.768 20.089,10.768 
		20.089,11.854 18.392,12.126 18.392,15.702 22.918,15.702 22.918,12.126 21.221,11.854 21.221,10.768 27.4,10.768 27.4,11.854 
		25.636,12.126 25.636,21.293 27.4,21.565 27.4,22.652 21.221,22.652 	"/>
	<polygon fill="#FFFFFF" points="38.967,22.652 28.713,22.652 28.713,21.565 30.479,21.293 30.479,12.126 28.713,11.854 
		28.713,10.768 38.967,10.768 38.967,13.915 37.813,13.915 37.541,12.217 33.195,12.217 33.195,15.749 35.912,15.749 36.184,14.232 
		37.202,14.232 37.202,18.623 36.184,18.623 35.912,17.106 33.195,17.106 33.195,21.203 37.541,21.203 37.813,19.505 38.967,19.505 
		38.967,22.652 	"/>
	<path fill="#FFFFFF" d="M53.409,8.867c-2.513,0-3.803,2.015-3.803,6.179c0,4.188,1.245,6.226,3.757,6.226
		c2.514,0,3.803-2.015,3.803-6.179C57.167,10.904,55.922,8.867,53.409,8.867L53.409,8.867z M53.386,22.924
		c-4.708,0-6.768-2.807-6.768-7.899c0-5.071,2.082-7.811,6.791-7.811c4.708,0,6.769,2.808,6.769,7.9
		C60.178,20.185,58.095,22.924,53.386,22.924L53.386,22.924z"/>
	<polygon fill="#FFFFFF" points="68.711,22.652 68.711,21.565 70.408,21.293 70.408,17.151 65.881,17.151 65.881,21.293 
		67.579,21.565 67.579,22.652 61.399,22.652 61.399,21.565 63.165,21.293 63.165,12.126 61.399,11.854 61.399,10.768 67.579,10.768 
		67.579,11.854 65.881,12.126 65.881,15.702 70.408,15.702 70.408,12.126 68.711,11.854 68.711,10.768 74.891,10.768 74.891,11.854 
		73.124,12.126 73.124,21.293 74.891,21.565 74.891,22.652 68.711,22.652 	"/>
	<polygon fill="#FFFFFF" points="76.361,22.652 76.361,21.565 78.127,21.293 78.127,12.126 76.361,11.854 76.361,10.768 
		82.609,10.768 82.609,11.854 80.843,12.126 80.843,21.293 82.609,21.565 82.609,22.652 76.361,22.652 	"/>
	<path fill="#FFFFFF" d="M89.332,12.126c-1.902,0-2.92,1.381-2.92,4.573c0,3.213,0.973,4.617,2.875,4.617
		c1.902,0,2.944-1.381,2.944-4.572C92.23,13.53,91.233,12.126,89.332,12.126L89.332,12.126z M89.31,22.878
		c-4.007,0-5.75-2.241-5.75-6.179c0-3.939,1.765-6.135,5.772-6.135c4.006,0,5.749,2.242,5.749,6.18
		C95.081,20.683,93.316,22.878,89.31,22.878L89.31,22.878z"/>
	<path fill="#FFFFFF" d="M107.463,22.924c-2.625,0-4.731-0.905-4.731-0.905v-3.237h1.29l0.294,2.083c0,0,0.973,0.339,2.694,0.339
		c1.765,0,3.35-0.588,3.35-2.513c0-1.742-1.223-1.991-2.717-2.49c-2.376-0.792-4.889-1.472-4.889-4.73
		c0-2.649,1.653-4.256,5.116-4.256c1.584,0,3.236,0.363,4.526,0.86v3.034h-1.29l-0.294-1.947c0,0-1.358-0.294-2.672-0.294
		c-1.312,0-2.671,0.453-2.671,2.196c0,3.78,7.607,1.29,7.607,7.334C113.077,21.248,111.221,22.924,107.463,22.924L107.463,22.924z"
		/>
	<polygon fill="#FFFFFF" points="123.806,14.051 123.535,12.217 120.908,12.217 120.908,21.293 122.674,21.565 122.674,22.652 
		116.427,22.652 116.427,21.565 118.192,21.293 118.192,12.217 115.566,12.217 115.295,14.051 114.14,14.051 114.14,10.768 
		124.96,10.768 124.96,14.051 123.806,14.051 	"/>
	<path fill="#FFFFFF" d="M130.821,13.054l-1.72,4.709h3.44L130.821,13.054L130.821,13.054z M132.226,22.652v-1.087l1.696-0.272
		l-0.836-2.149h-4.527l-0.838,2.149l1.698,0.272v1.087h-5.184v-1.087l1.698-0.272l4.074-10.525h2.603l4.075,10.525l1.698,0.272
		v1.087H132.226L132.226,22.652z"/>
	<polygon fill="#FFFFFF" points="147.321,14.051 147.05,12.217 144.425,12.217 144.425,21.293 146.19,21.565 146.19,22.652 
		139.942,22.652 139.942,21.565 141.708,21.293 141.708,12.217 139.082,12.217 138.81,14.051 137.656,14.051 137.656,10.768 
		148.477,10.768 148.477,14.051 147.321,14.051 	"/>
	<polygon fill="#FFFFFF" points="159.771,22.652 149.518,22.652 149.518,21.565 151.283,21.293 151.283,12.126 149.518,11.854 
		149.518,10.768 159.771,10.768 159.771,13.915 158.617,13.915 158.345,12.217 154,12.217 154,15.749 156.715,15.749 
		156.987,14.232 158.005,14.232 158.005,18.623 156.987,18.623 156.715,17.106 154,17.106 154,21.203 158.345,21.203 
		158.617,19.505 159.771,19.505 159.771,22.652 	"/>
	<path fill="#FFFFFF" d="M180.438,8.912v7.742c0,2.603-0.158,3.734-1.38,4.957c-0.884,0.883-2.332,1.313-4.482,1.313
		c-2.128,0-3.713-0.589-4.709-1.584c-1.289-1.291-1.153-3.215-1.153-4.89V8.912l-1.835-0.271V7.486h6.521v1.155l-1.834,0.271v8.874
		c0,2.49,1.38,3.486,3.508,3.486c1.133,0,2.061-0.226,2.671-0.884c0.543-0.565,0.839-1.447,0.839-2.602V8.912l-1.834-0.271V7.486
		h5.522v1.155L180.438,8.912L180.438,8.912z"/>
	<polygon fill="#FFFFFF" points="194.721,12.126 194.721,22.652 192.594,22.652 186.549,14.164 186.549,21.293 188.315,21.565 
		188.315,22.652 182.995,22.652 182.995,21.565 184.762,21.293 184.762,12.126 182.995,11.854 182.995,10.768 187.139,10.768 
		192.933,18.872 192.933,12.126 191.168,11.854 191.168,10.768 196.486,10.768 196.486,11.854 194.721,12.126 	"/>
	<polygon fill="#FFFFFF" points="197.889,22.652 197.889,21.565 199.655,21.293 199.655,12.126 197.889,11.854 197.889,10.768 
		204.136,10.768 204.136,11.854 202.371,12.126 202.371,21.293 204.136,21.565 204.136,22.652 197.889,22.652 	"/>
	<polygon fill="#FFFFFF" points="217.402,12.126 213.441,22.652 210.814,22.652 206.854,12.126 205.156,11.854 205.156,10.768 
		211.312,10.768 211.312,11.854 209.615,12.126 212.625,20.275 215.613,12.126 213.916,11.854 213.916,10.768 219.1,10.768 
		219.1,11.854 217.402,12.126 	"/>
	<polygon fill="#FFFFFF" points="230.282,22.652 220.027,22.652 220.027,21.565 221.792,21.293 221.792,12.126 220.027,11.854 
		220.027,10.768 230.282,10.768 230.282,13.915 229.126,13.915 228.855,12.217 224.509,12.217 224.509,15.749 227.225,15.749 
		227.496,14.232 228.517,14.232 228.517,18.623 227.496,18.623 227.225,17.106 224.509,17.106 224.509,21.203 228.855,21.203 
		229.126,19.505 230.282,19.505 230.282,22.652 	"/>
	<path fill="#FFFFFF" d="M239.426,12.579c-0.453-0.475-1.428-0.43-2.037-0.43h-0.792v3.803h0.475c0.77,0,1.834,0.091,2.4-0.543
		c0.361-0.407,0.452-0.882,0.452-1.402C239.924,13.484,239.812,12.987,239.426,12.579L239.426,12.579z M240.693,22.652l-1.11-2.716
		c-0.746-1.811-1.198-2.649-2.782-2.649h-0.204v4.006l1.698,0.272v1.087h-6.182v-1.087l1.766-0.272v-9.167l-1.766-0.272v-1.087h6
		c1.223,0,2.647,0.068,3.576,0.929c0.611,0.566,0.951,1.335,0.951,2.218c0,1.381-0.907,2.625-2.151,3.011
		c0.996,0.746,1.856,3.191,2.354,4.367l1.699,0.272v1.087H240.693L240.693,22.652z"/>
	<path fill="#FFFFFF" d="M249.905,22.878c-2.217,0-4.074-0.746-4.074-0.746v-3.079h1.224L247.348,21c0,0,0.86,0.248,2.197,0.248
		c1.448,0,2.557-0.475,2.557-1.765c0-0.905-0.498-1.222-1.244-1.471c-2.197-0.748-5.004-1.063-5.004-4.029
		c0-2.128,1.472-3.418,4.392-3.418c1.337,0,2.717,0.272,3.917,0.702v2.942h-1.224l-0.293-1.856c0,0-0.996-0.226-2.105-0.226
		s-2.083,0.385-2.083,1.539c0,2.648,6.271,0.883,6.271,5.591C254.728,21.565,253.053,22.878,249.905,22.878L249.905,22.878z"/>
	<polygon fill="#FFFFFF" points="256.312,22.652 256.312,21.565 258.078,21.293 258.078,12.126 256.312,11.854 256.312,10.768 
		262.561,10.768 262.561,11.854 260.794,12.126 260.794,21.293 262.561,21.565 262.561,22.652 256.312,22.652 	"/>
	<polygon fill="#FFFFFF" points="273.516,14.051 273.243,12.217 270.617,12.217 270.617,21.293 272.384,21.565 272.384,22.652 
		266.135,22.652 266.135,21.565 267.901,21.293 267.901,12.217 265.275,12.217 265.004,14.051 263.849,14.051 263.849,10.768 
		274.67,10.768 274.67,14.051 273.516,14.051 	"/>
	<polygon fill="#FFFFFF" points="287.164,12.126 283.701,17.492 283.701,21.293 285.467,21.565 285.467,22.652 279.22,22.652 
		279.22,21.565 280.985,21.293 280.985,17.492 277.477,12.126 275.778,11.854 275.778,10.768 282.071,10.768 282.071,11.854 
		280.374,12.126 282.818,15.975 285.24,12.126 283.61,11.854 283.61,10.768 288.862,10.768 288.862,11.854 287.164,12.126 	"/>
	<polygon fill="#FFFFFF" points="0.25,30.93 0.25,31.79 289.75,31.79 289.75,30.93 0.25,30.93 0.25,30.93 	"/>
</g>
</svg>
